<svg xmlns="http://www.w3.org/2000/svg" viewBox="0 0 100 100">
  <rect width="100" height="100" rx="20" fill="#18181b"/>
  <path d="M50 20C33.4315 20 20 33.4315 20 50C20 66.5685 33.4315 80 50 80C66.5685 80 80 66.5685 80 50C80 33.4315 66.5685 20 50 20ZM55 65H45V60.916C41.1182 60.1064 38.3037 57.3877 38.0312 53.5H43.375C43.5 55.4414 44.9121 56.6582 47.7617 56.6582C50.6113 56.6582 52.0234 55.5137 52.0234 53.791C52.0234 52.1797 51.041 51.2168 47.4688 50.4102C43.0801 49.3887 38.834 47.9238 38.834 43.1406C38.834 38.8516 41.9219 36.1738 45 35.3477V32H55V35.3477C57.7715 36.0469 60.4355 38.5273 60.75 42H55.4062C55.1875 40.2324 53.8691 39.0625 51.4863 39.0625C48.8809 39.0625 47.7832 40.1348 47.7832 41.5977C47.7832 43.1406 48.8066 44.0352 52.418 44.8965C57.0684 46.0352 61.166 47.6777 61.166 52.4414C61.166 57.291 58.0781 60.0352 55 60.916V65Z" fill="#c9a050"/>
</svg>
